<svg width="195" height="17" viewBox="0 0 195 17" fill="none" xmlns="http://www.w3.org/2000/svg">
<path d="M17.664 0.199999C18.016 0.199999 18.192 0.375999 18.192 0.727999V3.008C18.192 3.36 18.016 3.536 17.664 3.536H5.63998C5.17598 3.536 4.84798 3.656 4.65598 3.896C4.46398 4.136 4.36798 4.464 4.36798 4.88V5.696C4.36798 6.592 4.78398 7.04 5.61598 7.04H14.616C16.008 7.04 17.056 7.4 17.76 8.12C18.464 8.824 18.816 9.84 18.816 11.168V13.088C18.816 14.256 18.472 15.2 17.784 15.92C17.096 16.64 16.024 17 14.568 17H1.27198C0.903979 17 0.719979 16.824 0.719979 16.472V14.192C0.719979 13.84 0.903979 13.664 1.27198 13.664H13.872C14.336 13.664 14.664 13.544 14.856 13.304C15.048 13.064 15.144 12.736 15.144 12.32V11.336C15.144 10.44 14.728 9.992 13.896 9.992H4.89598C3.50398 9.992 2.45598 9.64 1.75198 8.936C1.04798 8.216 0.695979 7.192 0.695979 5.864V4.112C0.695979 2.944 1.03998 2 1.72798 1.28C2.41598 0.559999 3.48798 0.199999 4.94398 0.199999H17.664ZM46.6901 0.199999C48.5301 0.199999 49.8501 0.615999 50.6501 1.448C51.4501 2.28 51.8501 3.512 51.8501 5.144V6.92C51.8501 8.552 51.4501 9.784 50.6501 10.616C49.8501 11.448 48.5301 11.864 46.6901 11.864H36.7541V16.472C36.7541 16.824 36.5781 17 36.2261 17H33.6341C33.2661 17 33.0821 16.824 33.0821 16.472V0.92C33.0821 0.439999 33.3221 0.199999 33.8021 0.199999H46.6901ZM36.7541 8.696H45.9461C46.7621 8.696 47.3381 8.52 47.6741 8.168C48.0101 7.816 48.1781 7.28 48.1781 6.56V5.648C48.1781 4.928 48.0101 4.392 47.6741 4.04C47.3381 3.688 46.7621 3.512 45.9461 3.512H37.0661C36.8581 3.512 36.7541 3.608 36.7541 3.8V8.696ZM68.8867 0.199999C69.2387 0.199999 69.4147 0.375999 69.4147 0.727999V16.472C69.4147 16.824 69.2387 17 68.8867 17H66.2947C65.9267 17 65.7427 16.824 65.7427 16.472V0.727999C65.7427 0.375999 65.9267 0.199999 66.2947 0.199999H68.8867ZM101.482 0.199999C101.834 0.199999 102.01 0.375999 102.01 0.727999V3.08C102.01 3.448 101.834 3.632 101.482 3.632H90.8019C90.1779 3.632 89.6579 3.688 89.2419 3.8C88.8419 3.896 88.5219 4.072 88.2819 4.328C88.0419 4.568 87.8659 4.896 87.7539 5.312C87.6579 5.728 87.6099 6.256 87.6099 6.896V10.304C87.6099 10.944 87.6579 11.48 87.7539 11.912C87.8659 12.328 88.0419 12.664 88.2819 12.92C88.5219 13.16 88.8419 13.336 89.2419 13.448C89.6579 13.544 90.1779 13.592 90.8019 13.592H101.482C101.834 13.592 102.01 13.768 102.01 14.12V16.472C102.01 16.824 101.834 17 101.482 17H90.6579C89.4419 17 88.4099 16.888 87.5619 16.664C86.7139 16.44 86.0179 16.08 85.4739 15.584C84.9459 15.072 84.5539 14.416 84.2979 13.616C84.0579 12.8 83.9379 11.816 83.9379 10.664V6.536C83.9379 5.384 84.0579 4.408 84.2979 3.608C84.5539 2.808 84.9459 2.16 85.4739 1.664C86.0179 1.152 86.7139 0.783999 87.5619 0.559999C88.4099 0.319999 89.4419 0.199999 90.6579 0.199999H101.482ZM133.175 0.199999C133.543 0.199999 133.727 0.375999 133.727 0.727999V3.008C133.727 3.36 133.543 3.536 133.175 3.536H122.687C122.063 3.536 121.543 3.592 121.127 3.704C120.727 3.8 120.399 3.976 120.143 4.232C119.903 4.472 119.735 4.808 119.639 5.24C119.543 5.656 119.495 6.176 119.495 6.8V7.04H133.055C133.407 7.04 133.583 7.216 133.583 7.568V9.464C133.583 9.816 133.407 9.992 133.055 9.992H119.495V10.4C119.495 11.024 119.543 11.552 119.639 11.984C119.735 12.4 119.903 12.736 120.143 12.992C120.399 13.232 120.727 13.408 121.127 13.52C121.543 13.616 122.063 13.664 122.687 13.664H133.175C133.543 13.664 133.727 13.84 133.727 14.192V16.472C133.727 16.824 133.543 17 133.175 17H122.615C121.399 17 120.367 16.888 119.519 16.664C118.671 16.44 117.975 16.08 117.431 15.584C116.903 15.072 116.511 14.416 116.255 13.616C116.015 12.8 115.895 11.816 115.895 10.664V6.536C115.895 5.384 116.015 4.408 116.255 3.608C116.511 2.808 116.903 2.16 117.431 1.664C117.975 1.152 118.671 0.783999 119.519 0.559999C120.367 0.319999 121.399 0.199999 122.615 0.199999H133.175Z" fill="white"/>
<path d="M166.693 0.199999C167.301 0.199999 167.813 0.327999 168.229 0.584C168.645 0.823999 169.053 1.304 169.453 2.024L177.397 16.448C177.477 16.608 177.493 16.744 177.445 16.856C177.413 16.952 177.301 17 177.109 17H174.061C173.789 17 173.605 16.896 173.509 16.688L171.805 13.592H160.525L158.869 16.688C158.757 16.896 158.573 17 158.317 17H155.197C154.989 17 154.861 16.952 154.813 16.856C154.781 16.744 154.805 16.608 154.885 16.448L162.757 2.024C163.157 1.304 163.549 0.823999 163.933 0.584C164.317 0.327999 164.765 0.199999 165.277 0.199999H166.693ZM162.037 10.808H170.293L166.477 3.776C166.413 3.664 166.325 3.608 166.213 3.608H166.069C165.957 3.608 165.869 3.664 165.805 3.776L162.037 10.808ZM194.092 0.199999C194.444 0.199999 194.62 0.375999 194.62 0.727999V16.472C194.62 16.824 194.444 17 194.092 17H191.5C191.132 17 190.948 16.824 190.948 16.472V0.727999C190.948 0.375999 191.132 0.199999 191.5 0.199999H194.092Z" fill="#FA7500"/>
</svg>
