<svg xmlns="http://www.w3.org/2000/svg" xmlns:xlink="http://www.w3.org/1999/xlink" xmlns:inkscape="http://www.inkscape.org/namespaces/inkscape" version="1.1" width="740" height="399" viewBox="0 0 740 399">
<path transform="matrix(1,0,0,-1,0,399)" d="M6 .25H734C737.1786 .25 739.75 2.8214 739.75 6V393C739.75 396.1786 737.1786 398.75 734 398.75H6C2.8214 398.75 .25 396.1786 .25 393V6C.25 2.8214 2.8214 .25 6 .25Z" fill="#f3f3f6" fill-rule="evenodd"/>
<path transform="matrix(1,0,0,-1,0,399)" stroke-width=".5" stroke-linecap="butt" stroke-miterlimit="10" stroke-linejoin="miter" fill="none" stroke="#e3e3e8" d="M6 .25H734C737.1786 .25 739.75 2.8214 739.75 6V393C739.75 396.1786 737.1786 398.75 734 398.75H6C2.8214 398.75 .25 396.1786 .25 393V6C.25 2.8214 2.8214 .25 6 .25Z"/>
<text fill="#2e2f36" xml:space="preserve" transform="matrix(1 0 -0 1 0 399)" font-size="17" font-family="Inter" font-weight="bold"><tspan y="-363" x="32 47.555 57.415 67.309 77.475 81.419 92.214 102.074 108.67 118.53 122.474 132.453 142.891 152.85301 163.01902 169.97202 179.83202 190.59302 200.75902 204.70302 214.86902 224.62702 235.37102 239.99501 244.619 254.598 259.22203">Make data coverage explicit</tspan></text>
<path transform="matrix(1,0,0,-1,0,399)" d="M39.25 271H352.75C356.7578 271 360 274.2422 360 278.25V323.75C360 327.7578 356.7578 331 352.75 331H39.25C35.2422 331 32 327.7578 32 323.75V278.25C32 274.2422 35.2422 271 39.25 271Z" fill="#ffffff" fill-rule="evenodd"/>
<path transform="matrix(1,0,0,-1,0,399)" stroke-width="1.5" stroke-linecap="butt" stroke-miterlimit="10" stroke-linejoin="miter" fill="none" stroke="#d3d3d9" d="M39.25 271H352.75C356.7578 271 360 274.2422 360 278.25V323.75C360 327.7578 356.7578 331 352.75 331H39.25C35.2422 331 32 327.7578 32 323.75V278.25C32 274.2422 35.2422 271 39.25 271Z"/>
<text fill="#2e2f36" xml:space="preserve" transform="matrix(1 0 -0 1 0 399)" font-size="13" font-family="Inter" font-weight="bold"><tspan y="-306" x="143.0305 152.7285 156.2645 163.5705 168.6145 176.5965 181.9135 185.4495 193.08049 200.62049 204.15648 207.17249 214.94649 222.4085 230.6245 238.60649 243.9235">Historical export</tspan></text>
<text fill="#77778b" xml:space="preserve" transform="matrix(1 0 -0 1 0 399)" font-size="10" font-family="Inter"><tspan y="-288" x="128.1591 134.50911 140.3191 146.52912 148.89911 151.2691 156.4991 162.4091 168.22911 174.43912 177.24912 179.61911 188.30912 196.99912 202.80912 206.44911 212.08911 218.29912 220.66912 226.48912 229.29912 234.86913 240.68914 244.40914 249.63913 252.00913 257.97914">Published immutable version</tspan></text>
<path transform="matrix(1,0,0,-1,0,399)" d="M387.25 271H700.75C704.7578 271 708 274.2422 708 278.25V323.75C708 327.7578 704.7578 331 700.75 331H387.25C383.2422 331 380 327.7578 380 323.75V278.25C380 274.2422 383.2422 271 387.25 271Z" fill="#ffffff" fill-rule="evenodd"/>
<path transform="matrix(1,0,0,-1,0,399)" stroke-width="1.5" stroke-linecap="butt" stroke-miterlimit="10" stroke-linejoin="miter" fill="none" stroke="#d3d3d9" d="M387.25 271H700.75C704.7578 271 708 274.2422 708 278.25V323.75C708 327.7578 704.7578 331 700.75 331H387.25C383.2422 331 380 327.7578 380 323.75V278.25C380 274.2422 383.2422 271 387.25 271Z"/>
<text fill="#2e2f36" xml:space="preserve" transform="matrix(1 0 -0 1 0 399)" font-size="13" font-family="Inter" font-weight="bold"><tspan y="-306" x="477.7812 487.9472 496.1632 503.9372 509.25419 516.7942 521.8382 525.3742 533.3562 541.4422 548.9822 552.5182 555.5342 563.16519 571.27719 578.81716 586.90316 595.13217 602.9061">Operational changes</tspan></text>
<text fill="#77778b" xml:space="preserve" transform="matrix(1 0 -0 1 0 399)" font-size="10" font-family="Inter"><tspan y="-288" x="495.2216 502.49159 508.30158 512.02157 515.7415 521.5615 527.4115 531.0515 533.8615 539.0915 545.06149 550.87149 554.59146 560.17147 565.99148 568.80148 574.03146 577.67147 583.31149 586.9515">Current source state</tspan></text>
<path transform="matrix(1,0,0,-1,0,399)" d="M237.25 153H502.75C506.7578 153 510 156.2422 510 160.25V211.75C510 215.7578 506.7578 219 502.75 219H237.25C233.2422 219 230 215.7578 230 211.75V160.25C230 156.2422 233.2422 153 237.25 153Z" fill="#ff622a" fill-rule="evenodd"/>
<path transform="matrix(1,0,0,-1,0,399)" stroke-width="1.5" stroke-linecap="butt" stroke-miterlimit="10" stroke-linejoin="miter" fill="none" stroke="#bc3201" d="M237.25 153H502.75C506.7578 153 510 156.2422 510 160.25V211.75C510 215.7578 506.7578 219 502.75 219H237.25C233.2422 219 230 215.7578 230 211.75V160.25C230 156.2422 233.2422 153 237.25 153Z"/>
<text fill="#ffffff" xml:space="preserve" transform="matrix(1 0 -0 1 0 399)" font-size="13" font-family="Inter" font-weight="bold"><tspan y="-191" x="310.3482 320.1242 328.1062 335.7242 343.4982 348.8152 356.3552 364.5842 372.3582 375.37419 383.0052 390.98719 399.07319 404.1172 409.43418 416.97419 424.6052">Coverage contract</tspan></text>
<text fill="#ffffff" fill-opacity=".86" xml:space="preserve" transform="matrix(1 0 -0 1 0 399)" font-size="10" font-family="Inter"><tspan y="-173" x="289.8935 297.16349 302.97349 306.6135 312.5835 316.19349 319.80348 322.60346 325.41346 327.78346 333.99345 339.81346 345.66346 349.30348 351.67347 355.31349 360.88349 363.68348 366.49348 372.13349 377.9835 384.19349 387.00349 390.72349 396.5435 402.12348 408.09349 413.94349 419.52348 421.89347 424.26347 426.63346 432.27348 435.91349 438.28349 444.25349">Cutoff, identity, and reconciliation</tspan></text>
<path transform="matrix(1,0,0,-1,0,399)" stroke-width="1" stroke-linecap="butt" stroke-miterlimit="10" stroke-linejoin="miter" fill="none" stroke="#77778b" d="M196 271V244H370V221"/>
<path transform="matrix(1,0,0,-1,0,399)" stroke-width="1" stroke-linecap="butt" stroke-miterlimit="10" stroke-linejoin="miter" fill="none" stroke="#77778b" d="M544 271V244H370V221"/>
<path transform="matrix(1,0,0,-1,0,399)" d="M39.25 35H352.75C356.7578 35 360 38.2422 360 42.25V87.75C360 91.7578 356.7578 95 352.75 95H39.25C35.2422 95 32 91.7578 32 87.75V42.25C32 38.2422 35.2422 35 39.25 35Z" fill="#ffffff" fill-rule="evenodd"/>
<path transform="matrix(1,0,0,-1,0,399)" stroke-width="1.5" stroke-linecap="butt" stroke-miterlimit="10" stroke-linejoin="miter" fill="none" stroke="#d3d3d9" d="M39.25 35H352.75C356.7578 35 360 38.2422 360 42.25V87.75C360 91.7578 356.7578 95 352.75 95H39.25C35.2422 95 32 91.7578 32 87.75V42.25C32 38.2422 35.2422 35 39.25 35Z"/>
<text fill="#2e2f36" xml:space="preserve" transform="matrix(1 0 -0 1 0 399)" font-size="13" font-family="Inter" font-weight="bold"><tspan y="-70" x="145.4242 155.1222 158.65819 165.96419 171.0082 178.99019 184.30719 187.84319 195.47418 203.01418 206.55017 209.56618 217.78218 225.86818 233.64218 238.95919">Historical query</tspan></text>
<text fill="#77778b" xml:space="preserve" transform="matrix(1 0 -0 1 0 399)" font-size="10" font-family="Inter"><tspan y="-52" x="129.2315 135.7415 141.56151 145.17151 151.14151 154.86151 160.68152 163.49152 167.13152 173.04152 178.86153 181.67153 187.31153 193.40152 197.12152 202.94153 208.76154 214.97154 217.78154 223.99155 229.96155 235.77155 241.62155 247.83156 253.47156 257.19157">Before the agreed boundary</tspan></text>
<path transform="matrix(1,0,0,-1,0,399)" stroke-width="1" stroke-linecap="butt" stroke-miterlimit="10" stroke-linejoin="miter" fill="none" stroke="#77778b" d="M370 153V124H196V97"/>
<path transform="matrix(1,0,0,-1,0,399)" d="M387.25 35H700.75C704.7578 35 708 38.2422 708 42.25V87.75C708 91.7578 704.7578 95 700.75 95H387.25C383.2422 95 380 91.7578 380 87.75V42.25C380 38.2422 383.2422 35 387.25 35Z" fill="#ffffff" fill-rule="evenodd"/>
<path transform="matrix(1,0,0,-1,0,399)" stroke-width="1.5" stroke-linecap="butt" stroke-miterlimit="10" stroke-linejoin="miter" fill="none" stroke="#d3d3d9" d="M387.25 35H700.75C704.7578 35 708 38.2422 708 42.25V87.75C708 91.7578 704.7578 95 700.75 95H387.25C383.2422 95 380 91.7578 380 87.75V42.25C380 38.2422 383.2422 35 387.25 35Z"/>
<text fill="#2e2f36" xml:space="preserve" transform="matrix(1 0 -0 1 0 399)" font-size="13" font-family="Inter" font-weight="bold"><tspan y="-70" x="480.5142 489.0292 496.8032 502.12019 509.7382 513.2742 521.36019 529.5892 532.60519 543.65518 551.63717 556.95419 564.52017 568.05618 576.14218 584.37118 587.38717 594.6932 602.46719">Serving working set</tspan></text>
<text fill="#77778b" xml:space="preserve" transform="matrix(1 0 -0 1 0 399)" font-size="10" font-family="Inter"><tspan y="-52" x="486.9474 493.7074 497.3474 500.1574 506.1274 509.8474 512.6574 518.2974 521.9074 525.5474 531.36746 535.0874 537.8974 541.5374 547.4474 553.2674 556.0774 562.2874 568.2574 574.0674 579.91738 586.1274 591.7674 595.48739">At or after the boundary</tspan></text>
<path transform="matrix(1,0,0,-1,0,399)" stroke-width="1" stroke-linecap="butt" stroke-miterlimit="10" stroke-linejoin="miter" fill="none" stroke="#77778b" d="M370 153V124H544V97"/>
</svg>
